<svg width="12" height="21" viewBox="0 0 12 21" fill="none" xmlns="http://www.w3.org/2000/svg">
<path d="M2.36719 20.3906C2.10938 20.6484 1.78125 20.7891 1.39453 20.7891C0.621094 20.7891 0 20.1797 0 19.4062C0 19.0195 0.164062 18.668 0.433594 18.3984L8.63672 10.3828L0.433594 2.39062C0.164062 2.12109 0 1.75781 0 1.38281C0 0.609375 0.621094 0 1.39453 0C1.78125 0 2.10938 0.140625 2.36719 0.398438L11.4844 9.30469C11.8125 9.60938 11.9648 9.98438 11.9766 10.3945C11.9766 10.8047 11.8125 11.1562 11.4844 11.4727L2.36719 20.3906Z" fill="white"/>
</svg>
