<svg width="15" height="15" viewBox="0 0 15 15" fill="none" xmlns="http://www.w3.org/2000/svg">
<path fill-rule="evenodd" clip-rule="evenodd" d="M7.2 14.6998C9.10956 14.6998 10.9409 13.9412 12.2912 12.591C13.6414 11.2407 14.4 9.40936 14.4 7.4998C14.4 5.59025 13.6414 3.7589 12.2912 2.40864C10.9409 1.05837 9.10956 0.299805 7.2 0.299805C5.29044 0.299805 3.45909 1.05837 2.10883 2.40864C0.758569 3.7589 0 5.59025 0 7.4998C0 9.40936 0.758569 11.2407 2.10883 12.591C3.45909 13.9412 5.29044 14.6998 7.2 14.6998ZM8.1 4.7998C8.1 4.56111 8.00518 4.33219 7.8364 4.16341C7.66761 3.99463 7.43869 3.8998 7.2 3.8998C6.9613 3.8998 6.73239 3.99463 6.5636 4.16341C6.39482 4.33219 6.3 4.56111 6.3 4.7998V6.5998H4.5C4.26131 6.5998 4.03239 6.69463 3.8636 6.86341C3.69482 7.03219 3.6 7.26111 3.6 7.4998C3.6 7.7385 3.69482 7.96742 3.8636 8.1362C4.03239 8.30498 4.26131 8.3998 4.5 8.3998H6.3V10.1998C6.3 10.4385 6.39482 10.6674 6.5636 10.8362C6.73239 11.005 6.9613 11.0998 7.2 11.0998C7.43869 11.0998 7.66761 11.005 7.8364 10.8362C8.00518 10.6674 8.1 10.4385 8.1 10.1998V8.3998H9.9C10.1387 8.3998 10.3676 8.30498 10.5364 8.1362C10.7052 7.96742 10.8 7.7385 10.8 7.4998C10.8 7.26111 10.7052 7.03219 10.5364 6.86341C10.3676 6.69463 10.1387 6.5998 9.9 6.5998H8.1V4.7998Z" fill="white"/>
</svg>
