<svg width="24" height="24" viewBox="0 0 24 24" fill="none" xmlns="http://www.w3.org/2000/svg">
<path d="M4 12C4 8.2288 4 6.34314 5.17158 5.17158C6.34314 4 8.2288 4 12 4C15.7712 4 17.6569 4 18.8284 5.17158C20 6.34314 20 8.2288 20 12C20 15.7712 20 17.6569 18.8284 18.8284C17.6569 20 15.7712 20 12 20C8.2288 20 6.34314 20 5.17158 18.8284C4 17.6569 4 15.7712 4 12Z" stroke="#1C274C" stroke-width="1.05"/>
<path d="M8.79995 11.9998C9.68361 11.9998 10.4 11.2835 10.4 10.3998C10.4 9.51615 9.68361 8.7998 8.79995 8.7998C7.9163 8.7998 7.19995 9.51615 7.19995 10.3998C7.19995 11.2835 7.9163 11.9998 8.79995 11.9998Z" stroke="#1C274C" stroke-width="1.05"/>
<path d="M15.2001 12.0002C16.0838 12.0002 16.8001 12.7165 16.8001 13.6002C16.8001 14.4839 16.0838 15.2002 15.2001 15.2002C14.3164 15.2002 13.6001 14.4839 13.6001 13.6002C13.6001 12.7165 14.3164 12.0002 15.2001 12.0002Z" stroke="#1C274C" stroke-width="1.05"/>
<path d="M8.80005 13.5996V17.5996" stroke="#1C274C" stroke-width="1.05" stroke-linecap="round"/>
<path d="M15.2 10.4004V6.40039" stroke="#1C274C" stroke-width="1.05" stroke-linecap="round"/>
<path d="M8.80005 6.40039V7.20039" stroke="#1C274C" stroke-width="1.05" stroke-linecap="round"/>
<path d="M15.2 17.5998V16.7998" stroke="#1C274C" stroke-width="1.05" stroke-linecap="round"/>
</svg>
