<svg width="24" height="24" viewBox="0 0 24 24" fill="none" xmlns="http://www.w3.org/2000/svg">
<path d="M12 10.4C13.7674 10.4 15.2 8.96731 15.2 7.2C15.2 5.43269 13.7674 4 12 4C10.2327 4 8.80005 5.43269 8.80005 7.2C8.80005 8.96731 10.2327 10.4 12 10.4Z" stroke="#292D32" stroke-width="1.05"/>
<path d="M14.7999 13.2279C13.9762 12.9556 13.0199 12.7998 11.9999 12.7998C8.9071 12.7998 6.3999 14.2325 6.3999 15.9998C6.3999 17.7671 6.3999 19.1998 11.9999 19.1998C12.2804 19.1998 12.5468 19.1962 12.7999 19.1892" stroke="#292D32" stroke-width="1.05" stroke-linecap="round"/>
<path d="M16 17.723C16.4418 17.723 16.8 17.3649 16.8 16.923C16.8 16.4812 16.4418 16.123 16 16.123C15.5581 16.123 15.2 16.4812 15.2 16.923C15.2 17.3649 15.5581 17.723 16 17.723Z" stroke="#292D32" stroke-width="0.63"/>
<path d="M16.4708 14.2974C16.3727 14.2568 16.2485 14.2568 16 14.2568C15.7515 14.2568 15.6273 14.2568 15.5293 14.2974C15.3986 14.3516 15.2947 14.4554 15.2407 14.586C15.2159 14.6457 15.2063 14.7151 15.2024 14.8163C15.1969 14.965 15.1207 15.1027 14.9918 15.1771C14.8629 15.2515 14.7055 15.2487 14.5739 15.1792C14.4844 15.1319 14.4195 15.1056 14.3555 15.0971C14.2152 15.0786 14.0734 15.1167 13.9612 15.2028C13.8771 15.2673 13.8149 15.3749 13.6907 15.5901C13.5664 15.8053 13.5043 15.913 13.4904 16.0181C13.4719 16.1584 13.5099 16.3002 13.5961 16.4124C13.6354 16.4636 13.6906 16.5067 13.7763 16.5606C13.9023 16.6398 13.9835 16.7747 13.9835 16.9235C13.9835 17.0724 13.9023 17.2072 13.7763 17.2864C13.6906 17.3403 13.6354 17.3833 13.596 17.4345C13.5099 17.5468 13.4719 17.6886 13.4904 17.8288C13.5043 17.934 13.5663 18.0416 13.6907 18.2568C13.8149 18.472 13.877 18.5796 13.9611 18.6442C14.0734 18.7304 14.2152 18.7684 14.3555 18.7499C14.4195 18.7415 14.4843 18.7152 14.5739 18.6678C14.7055 18.5983 14.8628 18.5955 14.9917 18.6699C15.1207 18.7444 15.1969 18.882 15.2024 19.0307C15.2063 19.1319 15.2159 19.2012 15.2407 19.2609C15.2947 19.3916 15.3986 19.4954 15.5293 19.5496C15.6273 19.5902 15.7515 19.5902 16 19.5902C16.2485 19.5902 16.3727 19.5902 16.4708 19.5496C16.6015 19.4954 16.7053 19.3916 16.7595 19.2609C16.7841 19.2012 16.7938 19.1319 16.7976 19.0307C16.8031 18.882 16.8794 18.7444 17.0083 18.6699C17.1371 18.5955 17.2946 18.5983 17.4261 18.6678C17.5156 18.7151 17.5806 18.7414 17.6446 18.7499C17.7848 18.7683 17.9267 18.7303 18.0388 18.6442C18.1231 18.5796 18.1851 18.472 18.3094 18.2568C18.4336 18.0416 18.4958 17.934 18.5096 17.8288C18.5281 17.6886 18.4901 17.5468 18.4039 17.4345C18.3647 17.3833 18.3095 17.3403 18.2237 17.2864C18.0977 17.2072 18.0166 17.0723 18.0166 16.9235C18.0166 16.7747 18.0977 16.6398 18.2237 16.5606C18.3095 16.5068 18.3647 16.4636 18.404 16.4124C18.4901 16.3002 18.5281 16.1584 18.5096 16.0181C18.4958 15.913 18.4337 15.8054 18.3095 15.5902C18.1851 15.3749 18.1231 15.2673 18.0389 15.2028C17.9267 15.1167 17.7848 15.0787 17.6446 15.0972C17.5806 15.1056 17.5157 15.1319 17.4262 15.1792C17.2946 15.2488 17.1372 15.2515 17.0083 15.1771C16.8795 15.1027 16.8031 14.965 16.7976 14.8163C16.7938 14.7151 16.7841 14.6457 16.7595 14.586C16.7053 14.4554 16.6015 14.3516 16.4708 14.2974Z" stroke="#292D32" stroke-width="0.63"/>
</svg>
