<svg width="30" height="31" viewBox="0 0 30 31" fill="none" xmlns="http://www.w3.org/2000/svg">
<rect y="0.5" width="30" height="30" rx="6" fill="#FEE2E2"/>
<g clip-path="url(#clip0_1_1024)">
<path d="M12.1875 12.6875C12.3367 12.6875 12.4798 12.7468 12.5852 12.8523C12.6907 12.9577 12.75 13.1008 12.75 13.25V20C12.75 20.1492 12.6907 20.2923 12.5852 20.3977C12.4798 20.5032 12.3367 20.5625 12.1875 20.5625C12.0383 20.5625 11.8952 20.5032 11.7898 20.3977C11.6843 20.2923 11.625 20.1492 11.625 20V13.25C11.625 13.1008 11.6843 12.9577 11.7898 12.8523C11.8952 12.7468 12.0383 12.6875 12.1875 12.6875ZM15 12.6875C15.1492 12.6875 15.2923 12.7468 15.3977 12.8523C15.5032 12.9577 15.5625 13.1008 15.5625 13.25V20C15.5625 20.1492 15.5032 20.2923 15.3977 20.3977C15.2923 20.5032 15.1492 20.5625 15 20.5625C14.8508 20.5625 14.7077 20.5032 14.6023 20.3977C14.4968 20.2923 14.4375 20.1492 14.4375 20V13.25C14.4375 13.1008 14.4968 12.9577 14.6023 12.8523C14.7077 12.7468 14.8508 12.6875 15 12.6875ZM18.375 13.25C18.375 13.1008 18.3157 12.9577 18.2102 12.8523C18.1048 12.7468 17.9617 12.6875 17.8125 12.6875C17.6633 12.6875 17.5202 12.7468 17.4148 12.8523C17.3093 12.9577 17.25 13.1008 17.25 13.25V20C17.25 20.1492 17.3093 20.2923 17.4148 20.3977C17.5202 20.5032 17.6633 20.5625 17.8125 20.5625C17.9617 20.5625 18.1048 20.5032 18.2102 20.3977C18.3157 20.2923 18.375 20.1492 18.375 20V13.25Z" fill="#DC2626"/>
<path fill-rule="evenodd" clip-rule="evenodd" d="M22.3125 9.875C22.3125 10.1734 22.194 10.4595 21.983 10.6705C21.772 10.8815 21.4859 11 21.1875 11H20.625V21.125C20.625 21.7217 20.3879 22.294 19.966 22.716C19.544 23.1379 18.9717 23.375 18.375 23.375H11.625C11.0283 23.375 10.456 23.1379 10.034 22.716C9.61205 22.294 9.375 21.7217 9.375 21.125V11H8.8125C8.51413 11 8.22798 10.8815 8.017 10.6705C7.80603 10.4595 7.6875 10.1734 7.6875 9.875V8.75C7.6875 8.45163 7.80603 8.16548 8.017 7.9545C8.22798 7.74353 8.51413 7.625 8.8125 7.625H12.75C12.75 7.32663 12.8685 7.04048 13.0795 6.8295C13.2905 6.61853 13.5766 6.5 13.875 6.5H16.125C16.4234 6.5 16.7095 6.61853 16.9205 6.8295C17.1315 7.04048 17.25 7.32663 17.25 7.625H21.1875C21.4859 7.625 21.772 7.74353 21.983 7.9545C22.194 8.16548 22.3125 8.45163 22.3125 8.75V9.875ZM10.6328 11L10.5 11.0664V21.125C10.5 21.4234 10.6185 21.7095 10.8295 21.9205C11.0405 22.1315 11.3266 22.25 11.625 22.25H18.375C18.6734 22.25 18.9595 22.1315 19.1705 21.9205C19.3815 21.7095 19.5 21.4234 19.5 21.125V11.0664L19.3672 11H10.6328ZM8.8125 9.875V8.75H21.1875V9.875H8.8125Z" fill="#DC2626"/>
</g>
<defs>
<clipPath id="clip0_1_1024">
<rect width="18" height="18" fill="white" transform="translate(6 6.5)"/>
</clipPath>
</defs>
</svg>
