<svg width="24" height="24" viewBox="0 0 24 24" fill="none" xmlns="http://www.w3.org/2000/svg">
<path d="M4.3999 7.60039C4.3999 6.09189 4.3999 5.33765 4.86853 4.86902C5.33716 4.40039 6.09141 4.40039 7.5999 4.40039C9.10838 4.40039 9.86262 4.40039 10.3313 4.86902C10.7999 5.33765 10.7999 6.09189 10.7999 7.60039C10.7999 9.10887 10.7999 9.86311 10.3313 10.3318C9.86262 10.8004 9.10838 10.8004 7.5999 10.8004C6.09141 10.8004 5.33716 10.8004 4.86853 10.3318C4.3999 9.86311 4.3999 9.10887 4.3999 7.60039Z" stroke="#344054" stroke-width="1.05"/>
<path d="M13.2 16.4002C13.2 14.8917 13.2 14.1375 13.6686 13.6688C14.1372 13.2002 14.8915 13.2002 16.4 13.2002C17.9084 13.2002 18.6627 13.2002 19.1313 13.6688C19.6 14.1375 19.6 14.8917 19.6 16.4002C19.6 17.9087 19.6 18.6629 19.1313 19.1316C18.6627 19.6002 17.9084 19.6002 16.4 19.6002C14.8915 19.6002 14.1372 19.6002 13.6686 19.1316C13.2 18.6629 13.2 17.9087 13.2 16.4002Z" stroke="#344054" stroke-width="1.05"/>
<path d="M4.3999 16.4002C4.3999 14.8917 4.3999 14.1375 4.86853 13.6688C5.33716 13.2002 6.09141 13.2002 7.5999 13.2002C9.10838 13.2002 9.86262 13.2002 10.3313 13.6688C10.7999 14.1375 10.7999 14.8917 10.7999 16.4002C10.7999 17.9087 10.7999 18.6629 10.3313 19.1316C9.86262 19.6002 9.10838 19.6002 7.5999 19.6002C6.09141 19.6002 5.33716 19.6002 4.86853 19.1316C4.3999 18.6629 4.3999 17.9087 4.3999 16.4002Z" stroke="#344054" stroke-width="1.05"/>
<path d="M13.2 7.60039C13.2 6.09189 13.2 5.33765 13.6686 4.86902C14.1372 4.40039 14.8915 4.40039 16.4 4.40039C17.9084 4.40039 18.6627 4.40039 19.1313 4.86902C19.6 5.33765 19.6 6.09189 19.6 7.60039C19.6 9.10887 19.6 9.86311 19.1313 10.3318C18.6627 10.8004 17.9084 10.8004 16.4 10.8004C14.8915 10.8004 14.1372 10.8004 13.6686 10.3318C13.2 9.86311 13.2 9.10887 13.2 7.60039Z" stroke="#344054" stroke-width="1.05"/>
</svg>
