<svg width="15" height="17" viewBox="0 0 15 17" fill="none" xmlns="http://www.w3.org/2000/svg">
<path d="M0.644268 1.65767L10.0718 0.311417C10.125 0.303785 10.1792 0.307679 10.2308 0.322836C10.2823 0.337993 10.33 0.364059 10.3707 0.399267C10.4113 0.434474 10.4438 0.478001 10.4662 0.526898C10.4885 0.575794 10.5 0.628917 10.5 0.682667V16.3172C10.5 16.3708 10.4885 16.4239 10.4662 16.4727C10.4439 16.5216 10.4114 16.5651 10.3709 16.6002C10.3304 16.6354 10.2828 16.6615 10.2313 16.6767C10.1798 16.6919 10.1257 16.6959 10.0725 16.6884L0.643518 15.3422C0.464732 15.3167 0.301137 15.2276 0.182784 15.0912C0.0644315 14.9548 -0.000730689 14.7803 -0.000732422 14.5997V2.40017C-0.000730689 2.21958 0.0644315 2.04505 0.182784 1.90865C0.301137 1.77225 0.465482 1.68313 0.644268 1.65767ZM1.50002 3.05117V13.9487L9.00002 15.0204V1.97942L1.50002 3.05117ZM11.25 13.7499H13.5V3.24992H11.25V1.74992H14.25C14.4489 1.74992 14.6397 1.82893 14.7803 1.96959C14.921 2.11024 15 2.301 15 2.49992V14.4999C15 14.6988 14.921 14.8896 14.7803 15.0302C14.6397 15.1709 14.4489 15.2499 14.25 15.2499H11.25V13.7499ZM6.15002 8.49992L8.25002 11.4999H6.45002L5.25002 9.78542L4.05002 11.4999H2.25002L4.35002 8.49992L2.25002 5.49992H4.05002L5.25002 7.21442L6.45002 5.49992H8.25002L6.15002 8.49992Z" fill="white"/>
</svg>
