<svg width="30" height="31" viewBox="0 0 30 31" fill="none" xmlns="http://www.w3.org/2000/svg">
<rect y="0.5" width="30" height="30" rx="6" fill="#EEF2FF"/>
<path d="M23.4398 8.68294C23.5449 8.78838 23.6039 8.93119 23.6039 9.08007C23.6039 9.22895 23.5449 9.37175 23.4398 9.47719L22.2664 10.6517L20.0164 8.40169L21.1898 7.22719C21.2953 7.12174 21.4383 7.0625 21.5875 7.0625C21.7366 7.0625 21.8797 7.12174 21.9852 7.22719L23.4398 8.68182V8.68294ZM21.471 11.4459L19.221 9.19594L11.5564 16.8617C11.4945 16.9236 11.4479 16.9991 11.4203 17.0822L10.5147 19.7979C10.4982 19.8475 10.4959 19.9006 10.5079 19.9513C10.52 20.0021 10.5459 20.0485 10.5827 20.0854C10.6196 20.1223 10.666 20.1482 10.7168 20.1602C10.7676 20.1722 10.8207 20.1699 10.8702 20.1534L13.5859 19.2478C13.6689 19.2205 13.7444 19.1743 13.8064 19.1128L21.471 11.4459Z" fill="#2B40C0"/>
<path fill-rule="evenodd" clip-rule="evenodd" d="M7.125 21.6875C7.125 22.1351 7.30279 22.5643 7.61926 22.8807C7.93572 23.1972 8.36495 23.375 8.8125 23.375H21.1875C21.6351 23.375 22.0643 23.1972 22.3807 22.8807C22.6972 22.5643 22.875 22.1351 22.875 21.6875V14.9375C22.875 14.7883 22.8157 14.6452 22.7102 14.5398C22.6048 14.4343 22.4617 14.375 22.3125 14.375C22.1633 14.375 22.0202 14.4343 21.9148 14.5398C21.8093 14.6452 21.75 14.7883 21.75 14.9375V21.6875C21.75 21.8367 21.6907 21.9798 21.5852 22.0852C21.4798 22.1907 21.3367 22.25 21.1875 22.25H8.8125C8.66332 22.25 8.52024 22.1907 8.41475 22.0852C8.30926 21.9798 8.25 21.8367 8.25 21.6875V9.3125C8.25 9.16332 8.30926 9.02024 8.41475 8.91475C8.52024 8.80926 8.66332 8.75 8.8125 8.75H16.125C16.2742 8.75 16.4173 8.69074 16.5227 8.58525C16.6282 8.47976 16.6875 8.33668 16.6875 8.1875C16.6875 8.03832 16.6282 7.89524 16.5227 7.78975C16.4173 7.68426 16.2742 7.625 16.125 7.625H8.8125C8.36495 7.625 7.93572 7.80279 7.61926 8.11926C7.30279 8.43572 7.125 8.86495 7.125 9.3125V21.6875Z" fill="#2B40C0"/>
</svg>
