<svg width="13" height="14" viewBox="0 0 13 14" fill="none" xmlns="http://www.w3.org/2000/svg">
<path d="M7.66068 13.4093C7.52376 13.4086 7.38955 13.371 7.27218 13.3005L4.77168 11.8005C4.49039 11.6308 4.25755 11.3915 4.09558 11.1056C3.93362 10.8198 3.84798 10.497 3.84693 10.1685V6.77476C3.84762 6.5352 3.77312 6.30148 3.63393 6.10651L0.142685 1.20001C0.0611619 1.08674 0.012514 0.953151 0.00210878 0.813984C-0.00829648 0.674817 0.0199453 0.535481 0.083718 0.411349C0.147491 0.287217 0.244315 0.183115 0.363508 0.11053C0.482701 0.037944 0.61963 -0.000303729 0.759185 6.572e-06H11.5067C11.6464 -0.000575405 11.7835 0.0375055 11.9028 0.110033C12.0222 0.182561 12.1191 0.286706 12.183 0.410937C12.2468 0.535168 12.275 0.674639 12.2644 0.813906C12.2539 0.953174 12.205 1.08681 12.1232 1.20001L8.63193 6.10651C8.49253 6.30141 8.41777 6.53513 8.41818 6.77476V12.6503C8.41799 12.8512 8.33816 13.0439 8.19619 13.1862C8.05422 13.3285 7.86166 13.4087 7.66068 13.4093ZM0.759185 0.753757L4.24443 5.67151C4.47472 5.99319 4.59804 6.37914 4.59693 6.77476V10.1678C4.59743 10.3668 4.64925 10.5623 4.74739 10.7355C4.84553 10.9087 4.98668 11.0536 5.15718 11.1563L7.65768 12.6563L7.66818 6.77401C7.66735 6.37832 7.79092 5.99237 8.02143 5.67076L11.5119 0.764257L0.759185 0.753757Z" fill="white"/>
</svg>
