<svg width="24" height="24" viewBox="0 0 24 24" fill="none" xmlns="http://www.w3.org/2000/svg">
<path d="M12 10.4C13.7674 10.4 15.2 8.96731 15.2 7.2C15.2 5.43269 13.7674 4 12 4C10.2327 4 8.80005 5.43269 8.80005 7.2C8.80005 8.96731 10.2327 10.4 12 10.4Z" stroke="#292D32" stroke-width="1.05"/>
<path d="M14.7999 13.2279C13.9762 12.9556 13.0199 12.7998 11.9999 12.7998C8.9071 12.7998 6.3999 14.2325 6.3999 15.9998C6.3999 17.7671 6.3999 19.1998 11.9999 19.1998C12.2804 19.1998 12.5468 19.1962 12.7999 19.1892" stroke="#292D32" stroke-width="1.05" stroke-linecap="round"/>
<path d="M15.3168 15.2184C15.6208 14.673 15.7728 14.4004 16.0001 14.4004C16.2274 14.4004 16.3794 14.673 16.6834 15.2184L16.762 15.3595C16.8484 15.5145 16.8916 15.5919 16.9589 15.643C17.0263 15.6942 17.1101 15.7132 17.2779 15.7511L17.4306 15.7857C18.0209 15.9193 18.3161 15.986 18.3864 16.2118C18.4566 16.4377 18.2553 16.673 17.8529 17.1436L17.7488 17.2654C17.6344 17.399 17.5772 17.4659 17.5515 17.5486C17.5258 17.6314 17.5344 17.7206 17.5517 17.899L17.5675 18.0614C17.6283 18.6894 17.6588 19.0033 17.4749 19.1429C17.291 19.2824 17.0147 19.1552 16.462 18.9007L16.319 18.8349C16.1619 18.7626 16.0834 18.7264 16.0001 18.7264C15.9168 18.7264 15.8384 18.7626 15.6812 18.8349L15.5383 18.9007C14.9856 19.1552 14.7092 19.2824 14.5253 19.1429C14.3415 19.0033 14.372 18.6894 14.4328 18.0614L14.4485 17.899C14.4658 17.7206 14.4744 17.6314 14.4488 17.5486C14.423 17.4659 14.3658 17.399 14.2515 17.2654L14.1473 17.1436C13.7449 16.673 13.5436 16.4377 13.6139 16.2118C13.6841 15.986 13.9793 15.9193 14.5696 15.7857L14.7224 15.7511C14.8901 15.7132 14.974 15.6942 15.0413 15.643C15.1087 15.5919 15.1519 15.5145 15.2382 15.3595L15.3168 15.2184Z" stroke="#292D32" stroke-width="0.7"/>
</svg>
