<svg width="14" height="14" viewBox="0 0 14 14" fill="none" xmlns="http://www.w3.org/2000/svg">
<path d="M10.275 9.04938C11.1223 7.89323 11.5018 6.45981 11.3376 5.03588C11.1733 3.61196 10.4775 2.30255 9.38933 1.36962C8.30114 0.436685 6.90082 -0.0509679 5.46852 0.00422107C4.03622 0.0594101 2.67757 0.653371 1.6644 1.66727C0.651218 2.68118 0.0582298 4.04025 0.00406572 5.47258C-0.0500984 6.90492 0.438556 8.30489 1.37227 9.39242C2.30598 10.4799 3.61589 11.1748 5.03993 11.338C6.46397 11.5012 7.89712 11.1207 9.05266 10.2726H9.05179C9.07804 10.3076 9.10604 10.3409 9.13754 10.3733L12.5063 13.742C12.6704 13.9062 12.8929 13.9985 13.125 13.9986C13.3571 13.9986 13.5798 13.9065 13.744 13.7424C13.9082 13.5784 14.0004 13.3558 14.0005 13.1237C14.0006 12.8916 13.9085 12.6689 13.7444 12.5048L10.3757 9.136C10.3444 9.10434 10.3107 9.07596 10.275 9.04938ZM10.5008 5.68588C10.5008 6.31787 10.3763 6.94366 10.1345 7.52754C9.8926 8.11142 9.53812 8.64195 9.09124 9.08883C8.64436 9.53571 8.11383 9.8902 7.52995 10.132C6.94607 10.3739 6.32027 10.4984 5.68829 10.4984C5.0563 10.4984 4.4305 10.3739 3.84662 10.132C3.26274 9.8902 2.73222 9.53571 2.28533 9.08883C1.83845 8.64195 1.48397 8.11142 1.24212 7.52754C1.00026 6.94366 0.875786 6.31787 0.875786 5.68588C0.875786 4.40952 1.38282 3.18545 2.28533 2.28293C3.18785 1.38041 4.41193 0.873379 5.68829 0.873379C6.96464 0.873379 8.18872 1.38041 9.09124 2.28293C9.99376 3.18545 10.5008 4.40952 10.5008 5.68588Z" fill="#6B7280"/>
</svg>
