<svg width="136" height="136" viewBox="0 0 136 136" fill="none" xmlns="http://www.w3.org/2000/svg">
<rect x="1" y="1" width="134" height="134" rx="15" stroke="#D0D5DD" stroke-width="2" stroke-dasharray="4 4"/>
<path d="M100 110H36V26H80L100 46V110Z" fill="#90CAF9"/>
<path d="M97 48H78V29L97 48Z" fill="#E1F5FE"/>
<path d="M62 66L48 86H76L62 66Z" fill="#1565C0"/>
<path d="M76 72.8008L66 86.0008H86L76 72.8008Z" fill="#1976D2"/>
<path d="M83 72C84.6569 72 86 70.6569 86 69C86 67.3431 84.6569 66 83 66C81.3431 66 80 67.3431 80 69C80 70.6569 81.3431 72 83 72Z" fill="#1976D2"/>
</svg>
