<svg width="35" height="25" viewBox="0 0 35 25" fill="none" xmlns="http://www.w3.org/2000/svg">
<path d="M33.977 3.81001C33.7788 3.07391 33.3911 2.40279 32.8528 1.86371C32.3144 1.32462 31.6443 0.936448 30.9092 0.737975C28.2013 5.45572e-07 17.3498 0 17.3498 0C17.3498 0 6.49547 2.72786e-07 3.79331 0.726534C3.0566 0.925469 2.3852 1.31519 1.84666 1.85648C1.30813 2.39777 0.921446 3.07154 0.725526 3.81001C-1.90686e-06 6.51878 0 12.1737 0 12.1737C0 12.1737 -1.90686e-06 17.8287 0.725526 20.5374C0.923197 21.2738 1.31066 21.9452 1.84908 22.4844C2.3875 23.0235 3.05797 23.4115 3.79331 23.6095C6.49833 24.336 17.3498 24.336 17.3498 24.336C17.3498 24.336 28.2042 24.336 30.9092 23.6095C31.6443 23.411 32.3144 23.0228 32.8528 22.4837C33.3911 21.9447 33.7788 21.2735 33.977 20.5374C34.6996 17.8287 34.6996 12.1737 34.6996 12.1737C34.6996 12.1737 34.6911 6.51878 33.977 3.81001Z" fill="#FF0000"/>
<path d="M13.8788 17.3856L22.8965 12.174L13.8788 6.9624V17.3856Z" fill="white"/>
</svg>
